<?xml version="1.0" standalone="no"?>
<!DOCTYPE svg PUBLIC "-//W3C//DTD SVG 20010904//EN"
 "http://www.w3.org/TR/2001/REC-SVG-20010904/DTD/svg10.dtd">
<svg version="1.0" xmlns="http://www.w3.org/2000/svg"
 width="200.000000pt" height="200.000000pt" viewBox="0 0 200.000000 200.000000"
 preserveAspectRatio="xMidYMid meet">

<g transform="translate(0.000000,200.000000) scale(0.100000,-0.100000)"
fill="white" stroke="none">
<path d="M0 1000 l0 -1000 1000 0 1000 0 0 1000 0 1000 -1000 0 -1000 0 0
-1000z m1480 225 l0 -625 -467 0 c-455 0 -468 -1 -510 -21 -144 -70 -105 -284
57 -318 38 -8 210 -10 550 -9 l495 3 3 673 2 672 35 0 35 0 0 -720 0 -720
-577 0 -578 0 -50 24 c-67 32 -102 68 -134 135 l-26 56 -3 653 c-2 440 1 666
8 692 13 48 68 106 113 119 18 5 257 10 540 10 l507 1 0 -625z m0 -795 l0 -40
-436 0 c-281 0 -442 4 -455 10 -21 12 -25 40 -7 58 9 9 124 12 455 12 l443 0
0 -40z"/>
<path d="M761 1573 c-168 -61 -188 -282 -33 -365 26 -14 88 -40 137 -58 50
-18 102 -41 117 -52 34 -24 44 -67 24 -107 -31 -59 -137 -65 -284 -15 -82 27
-92 24 -92 -27 0 -15 -3 -40 -6 -57 -6 -30 -5 -31 62 -52 96 -31 251 -38 327
-16 109 32 163 111 155 225 -7 105 -61 151 -250 216 -112 39 -144 59 -154 101
-23 93 151 123 311 54 26 -11 50 -19 52 -16 2 2 7 35 10 73 l6 69 -59 19 c-81
26 -262 31 -323 8z"/>
</g>
</svg>
